<?xml version="1.0" encoding="utf-8"?>
<!-- Generator: Adobe Illustrator 26.3.1, SVG Export Plug-In . SVG Version: 6.00 Build 0)  -->
<svg version="1.1" id="Layer_1" xmlns="http://www.w3.org/2000/svg" xmlns:xlink="http://www.w3.org/1999/xlink" x="0px" y="0px"
	 viewBox="0 0 735 852" style="enable-background:new 0 0 735 852;" xml:space="preserve">
<style type="text/css">
	.st0{fill:#F7F7F7;}
	.st1{fill:#277CC5;}
</style>
<path d="M427.8,35.8L367.5,1l-60.3,34.8L29.4,196.2L0.1,213.1v424.3l29.3,16.9l281.3,162.4l56.9,32.8l56.9-32.8l281.3-162.4
	l29.3-16.9V213.1l-29.5-16.9L427.8,35.8z M705.6,621.5L367.5,816.7L29.4,621.5V231L367.5,35.8L705.6,231V621.5z"/>
<polygon class="st0" points="29.4,231 29.4,621.5 367.5,816.7 705.6,621.5 705.6,231 367.5,35.8 "/>
<g>
	<path class="st1" d="M618.2,386.8c-19.6,0-43,0-62.7,0c0,25.1,0,53.2,0,78.3h15.7c0-19.6,0-43,0-62.7c19.6,0,43,0,62.7,0v-15.7
		H618.2z"/>
	<path d="M524.2,386.8c-14,0-33,0-47,0c0-7.8,0-23.5,0-31.3h-15.7c0,35.9,0,73.8,0,109.7c25.1,0,53.2,0,78.3,0c0-25.1,0-53.2,0-78.3
		H524.2z M524.2,418.2c0,7.8,0,23.5,0,31.3c-14,0-33,0-47,0c0-14,0-33,0-47c14,0,33,0,47,0V418.2z"/>
	<g>
		<polygon points="430.2,402.5 430.2,465.2 445.9,465.2 445.9,386.8 430.2,386.8 430.2,402.5 		"/>
		<rect x="430.2" y="355.5" width="15.7" height="15.7"/>
	</g>
	<path d="M398.8,449.5c0-30.5,0-63.5,0-94h-15.7c0,35.9,0,73.8,0,109.7c7.8,0,23.5,0,31.3,0v-15.7H398.8z"/>
	<path d="M351.8,386.8c0,19.6,0,43,0,62.7c-14,0-33,0-47,0c0-19.6,0-43,0-62.7h-15.7c0,25.1,0,53.2,0,78.3c19.6,0,43,0,62.7,0v15.7
		c-19.6,0-43,0-62.7,0v15.7c25.1,0,53.2,0,78.3,0c0-35.9,0-73.8,0-109.7H351.8z"/>
	<path d="M257.8,386.8c-19.6,0-43,0-62.7,0v15.7c19.6,0,43,0,62.7,0v15.7c-19.6,0-43,0-62.7,0c0,14,0,33,0,47c25.1,0,53.2,0,78.3,0
		c0-25.1,0-53.2,0-78.3H257.8z M257.8,449.5c-14,0-33,0-47,0v-15.7c14,0,33,0,47,0V449.5z"/>
	<polyline points="101.1,386.8 101.1,465.2 116.8,465.2 116.8,402.5 179.5,402.5 179.5,386.8 	"/>
</g>
</svg>
